El Gringo 2012 VODRiP AC3-5 1 XviD-AXED


IMDB:  
http://www.imdb.com/title/tt1990216/

PLOT INFO:
A man crossing into Mexico with a satchel of $2,000,000, and a bloody past, 
finds himself under sudden attack in the sleepy town of El Fronteras.

MEDIAINFO:
General
Format                                   : AVI
Format/Info                              : Audio Video Interleave
File size                                : 1.37 GiB
Duration                                 : 1h 42mn
Overall bit rate                         : 1 920 Kbps

Video
ID                                       : 0
Format                                   : MPEG-4 Visual
Format profile                           : Advanced Simple@L5
Format settings, BVOP                    : 2
Format settings, QPel                    : No
Format settings, GMC                     : No warppoints
Format settings, Matrix                  : Default (H.263)
Muxing mode                              : Packed bitstream
Codec ID                                 : XVID
Codec ID/Hint                            : XviD
Duration                                 : 1h 42mn
Bit rate                                 : 1 528 Kbps
Width                                    : 720 pixels
Height                                   : 304 pixels
Display aspect ratio                     : 2.35:1
Frame rate                               : 23.976 fps
Color space                              : YUV
Chroma subsampling                       : 4:2:0
Bit depth                                : 8 bits
Scan type                                : Progressive
Compression mode                         : Lossy
Bits/(Pixel*Frame)                       : 0.291
Stream size                              : 1.09 GiB (80%)
Writing library                          : XviD 1.1.2 (UTC 2006-11-01)

Audio
ID                                       : 1
Format                                   : AC-3
Format/Info                              : Audio Coding 3
Mode extension                           : CM (complete main)
Codec ID                                 : 2000
Duration                                 : 1h 42mn
Bit rate mode                            : Constant
Bit rate                                 : 384 Kbps
Channel(s)                               : 6 channels
Channel positions                        : Front: L C R, Side: L R, LFE
Sampling rate                            : 48.0 KHz
Bit depth                                : 16 bits
Compression mode                         : Lossy
Stream size                              : 280 MiB (20%)
Alignment                                : Aligned on interleaves
Interleave, duration                     : 64 ms (1.53 video frames)
Interleave, preload duration             : 192 ms
Title                                    : elgringo


SOURCE: 

SD wmv Digital VOD Rental

NOTES: 

The new film starring Christian Slater and Scott Adkins, also from the After 
Dark Action Lineup that hit Limited Theatres & VOD on friday!


Poster:

 
http://i.imgur.com/MURVd.jpg


Screenshots:

 
http://i.imgur.com/hN8Av.jpg


ENJOY!